<?xml version="1.0" encoding="UTF-8" standalone="no"?>
<svg width="331px" height="63px" viewBox="0 0 331 63" version="1.1" xmlns="http://www.w3.org/2000/svg" xmlns:xlink="http://www.w3.org/1999/xlink" xmlns:sketch="http://www.bohemiancoding.com/sketch/ns">
    <!-- Generator: Sketch 3.4.4 (17249) - http://www.bohemiancoding.com/sketch -->
    <title>Page 1</title>
    <desc>Created with Sketch.</desc>
    <defs>
        <path id="path-1" d="M0,0.248 L330.48,0.248 L330.48,63 L0,63 L0,0.248 Z"></path>
    </defs>
    <g id="Page-1" stroke="none" stroke-width="1" fill="none" fill-rule="evenodd" sketch:type="MSPage">
        <g sketch:type="MSLayerGroup">
            <path d="M83.707,25.23 L79.447,25.23 L79.447,32.033 L83.707,32.033 C85.385,32.033 86.02,31.351 86.02,29.992 L86.02,27.181 C86.02,25.865 85.385,25.23 83.707,25.23 L83.707,25.23 Z M79.447,37.382 L79.447,43.411 L72.734,43.411 L72.734,19.835 L83.98,19.835 C90.602,19.835 92.641,22.376 92.641,26.863 L92.641,30.31 C92.641,34.89 90.193,37.382 83.666,37.382 L79.447,37.382 Z" id="Fill-1" fill="#000000" sketch:type="MSShapeGroup"></path>
            <path d="M113.334,34.4795 L105.762,34.4795 L105.762,43.4115 L99.053,43.4115 L99.053,19.8355 L105.762,19.8355 L105.762,28.6795 L113.334,28.6795 L113.334,19.8355 L120.045,19.8355 L120.045,43.4115 L113.334,43.4115 L113.334,34.4795 Z" id="Fill-3" fill="#000000" sketch:type="MSShapeGroup"></path>
            <mask id="mask-2" sketch:name="Clip 6" fill="white">
                <use xlink:href="#path-1"></use>
            </mask>
            <g id="Clip-6"></g>
            <path d="M127.818,19.835 L134.525,19.835 L134.525,43.411 L127.818,43.411 L127.818,19.835 Z" id="Fill-5" fill="#000000" sketch:type="MSShapeGroup" mask="url(#mask-2)"></path>
            <path d="M142.3066,19.8354 L149.0156,19.8354 L149.0156,37.6084 L158.8986,37.6084 L158.8986,43.4114 L142.3066,43.4114 L142.3066,19.8354 Z" id="Fill-7" fill="#000000" sketch:type="MSShapeGroup" mask="url(#mask-2)"></path>
            <path d="M174.914,25.187 C172.375,25.187 171.242,26.183 171.242,27.861 L171.242,35.386 C171.242,37.063 172.375,38.061 174.914,38.061 C177.453,38.061 178.584,37.063 178.584,35.386 L178.584,27.861 C178.584,26.183 177.453,25.187 174.914,25.187 M164.535,36.2 L164.535,27.044 C164.535,22.962 167.523,19.382 174.914,19.382 C182.307,19.382 185.301,22.962 185.301,27.044 L185.301,36.2 C185.301,40.284 182.307,43.866 174.914,43.866 C167.523,43.866 164.535,40.284 164.535,36.2" id="Fill-8" fill="#000000" sketch:type="MSShapeGroup" mask="url(#mask-2)"></path>
            <path d="M191.5312,42.2314 L192.6212,37.2474 C194.6622,37.8354 197.6522,38.3794 200.1502,38.3794 C202.6402,38.3794 203.1382,37.8794 203.1382,36.5184 C203.1382,35.0244 202.8692,34.6614 198.6052,33.9814 C192.4392,32.9854 191.8042,30.5814 191.8042,26.2754 C191.8042,21.1074 194.9332,19.3824 201.1442,19.3824 C203.4122,19.3824 206.9472,19.7434 209.2182,20.3784 L208.4452,25.6854 C205.8142,25.1404 203.3242,24.8704 201.1912,24.8704 C199.0152,24.8704 198.5152,25.1874 198.5152,26.4994 C198.5152,28.0874 198.7402,28.3144 202.7772,29.0384 C209.3982,30.2204 209.8532,31.7614 209.8532,36.2004 C209.8532,41.2784 208.0352,43.8664 200.0582,43.8664 C197.3362,43.8664 194.0722,43.3214 191.5312,42.2314" id="Fill-9" fill="#000000" sketch:type="MSShapeGroup" mask="url(#mask-2)"></path>
            <path d="M226.6132,25.187 C224.0762,25.187 222.9432,26.183 222.9432,27.861 L222.9432,35.386 C222.9432,37.063 224.0762,38.061 226.6132,38.061 C229.1562,38.061 230.2872,37.063 230.2872,35.386 L230.2872,27.861 C230.2872,26.183 229.1562,25.187 226.6132,25.187 M216.2302,36.2 L216.2302,27.044 C216.2302,22.962 219.2222,19.382 226.6132,19.382 C234.0062,19.382 236.9982,22.962 236.9982,27.044 L236.9982,36.2 C236.9982,40.284 234.0062,43.866 226.6132,43.866 C219.2222,43.866 216.2302,40.284 216.2302,36.2" id="Fill-10" fill="#000000" sketch:type="MSShapeGroup" mask="url(#mask-2)"></path>
            <path d="M254.8379,25.23 L250.5759,25.23 L250.5759,32.033 L254.8379,32.033 C256.5119,32.033 257.1469,31.351 257.1469,29.992 L257.1469,27.181 C257.1469,25.865 256.5119,25.23 254.8379,25.23 L254.8379,25.23 Z M250.5759,37.382 L250.5759,43.411 L243.8629,43.411 L243.8629,19.835 L255.1089,19.835 C261.7289,19.835 263.7679,22.376 263.7679,26.863 L263.7679,30.31 C263.7679,34.89 261.3219,37.382 254.7929,37.382 L250.5759,37.382 Z" id="Fill-11" fill="#000000" sketch:type="MSShapeGroup" mask="url(#mask-2)"></path>
            <path d="M284.4609,34.4795 L276.8889,34.4795 L276.8889,43.4115 L270.1819,43.4115 L270.1819,19.8355 L276.8889,19.8355 L276.8889,28.6795 L284.4609,28.6795 L284.4609,19.8355 L291.1739,19.8355 L291.1739,43.4115 L284.4609,43.4115 L284.4609,34.4795 Z" id="Fill-12" fill="#000000" sketch:type="MSShapeGroup" mask="url(#mask-2)"></path>
            <path d="M298.945,19.835 L305.652,19.835 L305.652,43.411 L298.945,43.411 L298.945,19.835 Z" id="Fill-13" fill="#000000" sketch:type="MSShapeGroup" mask="url(#mask-2)"></path>
            <path d="M313.4336,19.8354 L330.4806,19.8354 L330.4806,25.1874 L320.1446,25.1874 L320.1446,28.7674 L329.6656,28.7674 L329.6656,34.1164 L320.1446,34.1164 L320.1446,38.0614 L330.4806,38.0614 L330.4806,43.4114 L313.4336,43.4114 L313.4336,19.8354 Z" id="Fill-14" fill="#000000" sketch:type="MSShapeGroup" mask="url(#mask-2)"></path>
            <path d="M0.5615,32.9912 L0.0055,32.9912 L0.0055,63.0002 L24.6295,32.9912 L0.5615,32.9912 Z" id="Fill-15" fill="#000000" sketch:type="MSShapeGroup" mask="url(#mask-2)"></path>
            <path d="M28.6528,12.2324 C37.2638,12.2324 44.3708,18.7664 45.2858,27.1354 L57.3088,27.1354 C56.3598,12.1514 43.8738,0.2474 28.6528,0.2474 C13.4778,0.2474 1.0178,12.0774 -0.0002,26.9974 L0.0058,26.9974 L0.5618,26.9974 L12.0348,26.9974 C13.0148,18.6954 20.0908,12.2324 28.6528,12.2324" id="Fill-16" fill="#000000" sketch:type="MSShapeGroup" mask="url(#mask-2)"></path>
            <path d="M44.895,32.9912 C43.089,40.2822 36.494,45.7032 28.653,45.7032 C26.601,45.7032 24.631,45.3292 22.812,44.6492 L22.261,45.3232 L14.968,54.2122 C19.038,56.4282 23.701,57.6882 28.653,57.6882 C43.122,57.6882 55.121,46.9292 57.084,32.9912 L44.895,32.9912 Z" id="Fill-17" fill="#000000" sketch:type="MSShapeGroup" mask="url(#mask-2)"></path>
        </g>
    </g>
</svg>